# xmcd
# 
# Track frame offsets:
#   150
#   18887
#   37822
#   54492
#   73125
#   86582
#   102607
#   116653
#   129286
#   148714
#   163669
#   178842
#   195966
#   211827
#   234412
# 
# Disc length: 3358 seconds
# 
# Revision: 1
# Processed by: cddbd v1.5.2PL0 Copyright (c) Steve Scherf et al.
# Submitted via: Synapstar 1.0 
# 
DISCID=c90d1c0f
DTITLE=Various Artist - CB60329
DYEAR=1900
DGENRE=Country
TTITLE0=Clark, Terri - I Think The World Needs A Drink
TTITLE1=Lonestar - County Fair
TTITLE2=ONeal, Jamie - Trying To Find Atlantis
TTITLE3=Byrd, Tracy - Revenge Of A Middle-Aged Woman
TTITLE4=Fairchild, Shelly - You Don't Lie Here Anymore
TTITLE5=Jackson, Alan - Monday Morning Church
TTITLE6=Dalley, Amy - Living Together
TTITLE7=Lawrence, Tracy - Sawdust On Her Halo \tLawrence, Tracy
TTITLE8=Wilson, Gretchen - When I Think About Cheatin'
TTITLE9=Bates, Jeff - Long, Slow Kisses
TTITLE10=Harvick, Kerry - Cowgirls
TTITLE11=Carolina Rain - I Ain't Scared
TTITLE12=Cotter, Brad - I Miss Me
TTITLE13=Roberts, Julie - Chance, The
TTITLE14=Murphy, David Lee - Inspiration
EXTD=MediaType: Karaoke CD+G Producer: Chartbuster
EXTT0=
EXTT1=
EXTT2=
EXTT3=
EXTT4=
EXTT5=
EXTT6=
EXTT7=
EXTT8=
EXTT9=
EXTT10=
EXTT11=
EXTT12=
EXTT13=
EXTT14=
PLAYORDER=
